<?xml version="1.0" standalone="no"?>
<!DOCTYPE svg PUBLIC "-//W3C//DTD SVG 20010904//EN"
 "http://www.w3.org/TR/2001/REC-SVG-20010904/DTD/svg10.dtd">
<svg version="1.0" xmlns="http://www.w3.org/2000/svg"
 width="512.000000pt" height="512.000000pt" viewBox="0 0 512.000000 512.000000"
 preserveAspectRatio="xMidYMid meet">
<metadata>
Created by potrace 1.14, written by Peter Selinger 2001-2017
</metadata>
<g transform="translate(0.000000,512.000000) scale(0.100000,-0.100000)"
fill="#000000" stroke="none">
<path d="M4770 5110 c-49 -8 -93 -15 -210 -31 -41 -6 -86 -12 -100 -14 -14 -2
-47 -7 -75 -11 -27 -3 -52 -7 -55 -9 -3 -2 -34 -6 -70 -10 -36 -3 -72 -8 -80
-10 -8 -2 -33 -6 -55 -9 -22 -3 -89 -13 -150 -21 -60 -9 -126 -18 -145 -21
-20 -2 -47 -6 -60 -9 -14 -3 -47 -7 -75 -10 -27 -3 -61 -8 -75 -10 -14 -3 -38
-7 -55 -9 -16 -2 -48 -7 -70 -11 -22 -3 -55 -8 -73 -10 -53 -7 -185 -25 -212
-29 -14 -3 -45 -7 -70 -10 -25 -3 -54 -8 -65 -10 -11 -2 -47 -7 -80 -11 -32
-3 -62 -8 -65 -10 -3 -2 -27 -6 -55 -9 -55 -6 -258 -34 -290 -40 -11 -2 -46
-7 -79 -11 -32 -3 -68 -8 -80 -11 -11 -2 -39 -6 -61 -9 -22 -3 -52 -8 -68 -10
-15 -2 -62 -9 -105 -15 -42 -6 -88 -12 -102 -14 -14 -3 -45 -7 -70 -10 -25 -3
-54 -8 -65 -10 -11 -2 -47 -7 -80 -11 -32 -3 -62 -8 -65 -10 -3 -1 -32 -6 -65
-9 -196 -22 -259 -51 -307 -144 l-28 -54 0 -1371 c0 -754 -2 -1372 -4 -1374
-2 -3 -27 7 -55 21 -129 66 -265 94 -425 90 -67 -1 -132 -5 -146 -8 -301 -61
-549 -256 -676 -531 -95 -206 -106 -471 -29 -687 115 -320 392 -552 725 -605
93 -15 281 -7 370 16 290 74 537 293 639 567 58 154 55 70 61 1444 l5 1264 35
7 c19 4 62 11 95 14 33 4 62 8 65 10 3 2 37 6 75 10 39 4 72 9 75 10 3 2 30 6
60 9 30 4 66 9 80 11 14 3 39 7 55 9 32 5 103 15 145 21 14 2 75 11 135 19
166 23 187 26 220 31 17 3 46 7 65 9 65 9 195 28 210 31 8 1 40 6 70 10 30 4
64 9 75 11 11 2 43 6 70 9 28 3 57 8 65 10 8 2 40 7 70 10 30 3 82 10 115 15
33 5 78 12 100 15 22 4 51 8 65 10 14 2 48 7 75 10 28 3 75 10 105 15 54 9 93
14 175 25 22 2 49 6 60 9 20 3 91 14 150 21 37 5 179 25 221 31 l31 5 0 -756
c0 -415 -2 -755 -4 -755 -2 0 -26 11 -53 25 -59 30 -178 71 -240 82 -57 10
-283 10 -330 0 -257 -56 -439 -172 -585 -372 -124 -171 -184 -378 -172 -588 7
-118 10 -131 38 -223 94 -303 347 -545 654 -623 76 -19 100 -22 210 -26 453
-13 859 323 932 773 5 26 8 873 8 1883 l0 1836 -30 49 c-57 91 -159 127 -295
104z"/>
</g>
</svg>
